<?xml version="1.0" encoding="utf-8"?>
<svg xmlns="http://www.w3.org/2000/svg" viewBox="0 0 500 500">
  <g id="katman_1">
    <path id="Initiator" class="st0" d="M 500 249.999 C 500 111.94 388.061 0 250.001 0 C 111.947 0 0 111.94 0 249.999 C 0 367.229 80.712 465.611 189.62 492.641 L 189.62 326.408 L 138.062 326.408 L 138.062 249.999 L 189.62 249.999 L 189.62 217.086 C 189.62 131.999 228.12 92.561 311.682 92.561 C 327.531 92.561 354.853 95.673 366.031 98.766 L 366.031 167.999 C 360.119 167.381 349.883 167.056 337.148 167.056 C 296.148 167.056 280.327 182.586 280.327 222.968 L 280.327 249.999 L 361.974 249.999 L 347.943 326.408 L 280.297 326.408 L 280.297 498.17 C 404.061 483.202 500 377.787 500 249.999 Z" style="transform-origin: 250px 251.721px; fill: rgb(255, 255, 255);"/>
    <path id="F" class="st1" d="M 347.915 326.381 L 361.943 249.967 L 280.297 249.967 L 280.297 222.939 C 280.297 182.556 296.148 167.026 337.12 167.026 C 349.853 167.026 360.089 167.351 366.001 167.968 L 366.001 98.734 C 354.827 95.616 327.501 92.526 311.648 92.526 C 228.12 92.526 189.593 131.968 189.593 217.056 L 189.593 249.967 L 138.062 249.967 L 138.062 326.381 L 189.62 326.381 L 189.62 492.611 C 208.975 497.408 229.182 499.962 250.001 499.962 C 260.267 499.962 270.356 499.349 280.297 498.141 L 280.297 326.381 L 347.915 326.381 Z" style="transform-origin: 250px 251.721px; fill: rgb(120, 6, 6);"/>
  </g>
</svg>