<?xml version="1.0" encoding="utf-8"?>
<svg xmlns="http://www.w3.org/2000/svg" viewBox="0 0 500 500">
  <g id="katman_1-1">
    <ellipse style="stroke: rgb(0, 0, 0); stroke-width: 0px; fill: rgb(120, 6, 6);" cx="250" cy="250" rx="250" ry="250"/>
    <path class="st0" d="M 250 0 C 111.912 0 0 111.912 0 250 C 0 388.088 111.912 500 250 500 C 388.088 500 500 388.088 500 250 C 500 111.912 388.088 0 250 0 Z M 404.823 319.706 C 404.059 336.265 401.5 347.559 397.618 357.471 C 393.647 367.676 388.353 376.412 379.647 385 C 371.029 393.618 362.323 399 352.118 402.971 C 342.206 406.853 330.912 409.412 314.353 410.176 C 297.794 410.941 292.5 411.147 250.235 411.147 C 207.941 411.147 202.676 410.941 186.118 410.176 C 169.559 409.412 158.265 406.853 148.353 402.971 C 138.147 399 129.412 393.706 120.824 385 C 112.206 376.382 106.824 367.676 102.853 357.471 C 98.971 347.559 96.412 336.265 95.647 319.706 C 94.882 303.147 94.676 297.853 94.676 255.588 C 94.676 213.324 94.882 208.029 95.647 191.471 C 96.412 174.912 98.971 163.618 102.853 153.706 C 106.824 143.5 112.118 134.765 120.824 126.176 C 129.441 117.559 138.147 112.176 148.353 108.206 C 158.265 104.324 169.559 101.765 186.118 101 C 202.676 100.235 207.971 100.029 250.235 100.029 C 292.529 100.029 297.794 100.235 314.353 101 C 330.912 101.765 342.206 104.324 352.118 108.206 C 362.323 112.176 371.059 117.471 379.647 126.176 C 388.265 134.794 393.647 143.5 397.618 153.706 C 401.5 163.618 404.059 174.912 404.823 191.471 C 405.588 208.029 405.794 213.324 405.794 255.588 C 405.794 297.853 405.559 303.147 404.823 319.706 Z" style="fill: rgb(255, 255, 255);"/>
    <path class="st0" d="M 371.471 163.941 C 368.676 156.735 365.235 151.471 359.853 146.088 C 354.353 140.588 349.206 137.265 342 134.471 C 336.5 132.324 328.323 129.853 313.176 129.088 C 296.824 128.324 291.882 128.235 250.353 128.235 C 208.824 128.235 203.882 128.353 187.529 129.088 C 172.353 129.735 164.176 132.324 158.706 134.471 C 151.5 137.265 146.235 140.706 140.853 146.088 C 135.353 151.588 132.029 156.735 129.235 163.941 C 127.088 169.441 124.618 177.618 123.853 192.765 C 123.088 209.118 123 214.059 123 255.588 C 123 297.118 123.118 302.059 123.853 318.412 C 124.5 333.588 127.088 341.765 129.235 347.235 C 132.029 354.441 135.471 359.706 140.853 365.088 C 146.353 370.588 151.5 373.912 158.706 376.706 C 164.206 378.853 172.382 381.323 187.529 382.088 C 203.882 382.853 208.824 382.941 250.353 382.941 C 291.882 382.941 296.824 382.823 313.176 382.088 C 328.353 381.441 336.529 378.853 342 376.706 C 349.206 373.912 354.471 370.471 359.853 365.088 C 365.353 359.588 368.676 354.441 371.471 347.235 C 373.618 341.735 376.088 333.559 376.853 318.412 C 377.618 302.059 377.706 297.118 377.706 255.588 C 377.706 214.059 377.588 209.118 376.853 192.765 C 376.206 177.618 373.618 169.441 371.471 163.941 Z M 250.324 335.529 C 206.206 335.529 170.5 299.823 170.5 255.706 C 170.5 211.588 206.206 175.882 250.324 175.882 C 294.441 175.882 330.147 211.588 330.147 255.706 C 330.147 299.706 294.324 335.529 250.324 335.529 Z M 333.265 191.265 C 322.941 191.265 314.647 182.882 314.647 172.647 C 314.647 162.324 323.029 154.029 333.265 154.029 C 343.588 154.029 351.882 162.412 351.882 172.647 C 352 182.971 343.588 191.265 333.265 191.265 Z" style="fill: rgb(255, 255, 255);"/>
    <circle class="st0" cx="250.323" cy="255.588" r="51.853" style="fill: rgb(255, 255, 255);"/>
  </g>
</svg>